<svg width="548" height="107" viewBox="0 0 548 107" fill="none" xmlns="http://www.w3.org/2000/svg">
<path d="M25.6 41.22V106H12.17V41.22H0.32V27H12.17V0.929997H25.6V27H37.45V41.22H25.6ZM157.282 106H143.536L129.158 70.292L114.78 106H101.034L69.1179 27H84.6019L107.828 84.67L121.416 51.332L111.62 27H127.104L150.33 84.67L173.556 27H188.882L157.282 106ZM226.22 72.504C226.22 75.032 227.116 77.6653 228.907 80.404C230.802 83.1427 232.962 85.46 235.384 87.356C239.809 90.832 244.97 92.57 250.869 92.57C260.243 92.57 267.88 88.0407 273.778 78.982L285.786 86.092C281.679 92.728 276.623 97.8367 270.619 101.418C264.615 104.999 258.031 106.79 250.869 106.79C245.497 106.79 240.388 105.789 235.542 103.788C230.697 101.681 226.431 98.7847 222.744 95.098C219.058 91.4113 216.161 87.1453 214.054 82.3C212.053 77.4547 211.052 72.346 211.052 66.974C211.052 61.602 212.053 56.4933 214.054 51.648C216.161 46.6973 219.058 42.3787 222.744 38.692C226.326 35.0053 230.539 32.1613 235.384 30.16C240.335 28.1587 245.497 27.158 250.869 27.158C256.241 27.158 261.349 28.1587 266.195 30.16C271.145 32.1613 275.411 35.0053 278.993 38.692C286.787 46.6973 290.685 55.9667 290.685 66.5C290.685 68.396 290.527 70.3973 290.21 72.504H226.22ZM250.869 40.114C246.55 40.114 242.495 41.062 238.702 42.958C234.91 44.854 231.856 47.382 229.538 50.542C227.326 53.5967 226.22 56.862 226.22 60.338H275.517C275.517 56.862 274.358 53.5967 272.041 50.542C269.829 47.382 266.827 44.854 263.035 42.958C259.242 41.062 255.187 40.114 250.869 40.114ZM323.862 106V0.929997H336.502V106H323.862ZM414.189 106H400.759L369.633 27H384.643L407.553 84.67L430.305 27H445.315L414.189 106ZM482.606 72.504C482.606 75.032 483.502 77.6653 485.292 80.404C487.188 83.1427 489.348 85.46 491.77 87.356C496.194 90.832 501.356 92.57 507.254 92.57C516.629 92.57 524.266 88.0407 530.164 78.982L542.172 86.092C538.064 92.728 533.008 97.8367 527.004 101.418C521 104.999 514.417 106.79 507.254 106.79C501.882 106.79 496.774 105.789 491.928 103.788C487.083 101.681 482.817 98.7847 479.13 95.098C475.444 91.4113 472.547 87.1453 470.44 82.3C468.439 77.4547 467.438 72.346 467.438 66.974C467.438 61.602 468.439 56.4933 470.44 51.648C472.547 46.6973 475.444 42.3787 479.13 38.692C482.712 35.0053 486.925 32.1613 491.77 30.16C496.721 28.1587 501.882 27.158 507.254 27.158C512.626 27.158 517.735 28.1587 522.58 30.16C527.531 32.1613 531.797 35.0053 535.378 38.692C543.173 46.6973 547.07 55.9667 547.07 66.5C547.07 68.396 546.912 70.3973 546.596 72.504H482.606ZM507.254 40.114C502.936 40.114 498.88 41.062 495.088 42.958C491.296 44.854 488.242 47.382 485.924 50.542C483.712 53.5967 482.606 56.862 482.606 60.338H531.902C531.902 56.862 530.744 53.5967 528.426 50.542C526.214 47.382 523.212 44.854 519.42 42.958C515.628 41.062 511.573 40.114 507.254 40.114Z" fill="#FDFAF6"/>
</svg>
